<?xml version="1.0" encoding="UTF-8"?>
<svg id="Layer_1" data-name="Layer 1" xmlns="http://www.w3.org/2000/svg" viewBox="0 0 504.58 538.07">
  <defs>
    <style>
      .cls-1 {
        fill: #0b9848;
      }

      .cls-1, .cls-2, .cls-3 {
        stroke-width: 0px;
      }

      .cls-2 {
        fill: #939598;
      }

      .cls-3 {
        fill: #f78d1e;
      }
    </style>
  </defs>
  <g>
    <polygon class="cls-1" points="23.53 447.93 23.53 423.55 0 447.93 23.53 447.93"/>
    <path class="cls-3" d="m217.41,165.91l-153.16-17.03,141.02-4.99c-2.81-7.06-4.78-14.36-5.82-21.82-50.5,1.35-139.59,3.59-139.59,3.59-8.59,1.83-14.72,9.27-14.72,17.87v177.6c0,10.1,8.38,18.29,18.71,18.29l153.72,10.97v-184.25c-.06-.08-.11-.16-.16-.24Z"/>
  </g>
  <g>
    <path class="cls-2" d="m213.98,160.11l-103.44-8.08,101.05,5.31.74.04-.77-1.29-97.73-4.74,95.9,2.56.67.03-.66-1.25-87.85-1.93,86.52.63h.63s-.27-.55-.27-.55c-.04-.08-.08-.16-.13-.24-.04-.07-.08-.14-.11-.22l-.1-.22-91.58-.41,90.19-1.37h.6s-.54-1.21-.54-1.21l-125.79,2.42,132.72,11.8.78.07-.82-1.34Z"/>
    <path class="cls-2" d="m222.71,172.09l-.33-.39c-.11-.13-.22-.25-.33-.38l-.71-.86.95,175.49v.38s2.03-.01,2.03-.01l-1.61-174.09v-.14Z"/>
    <path class="cls-2" d="m226.37,176.28l-.1-.11c-.11-.11-.21-.23-.31-.35-.1-.12-.2-.23-.3-.34l-.69-.76.9,166.76v.38s2.04-.01,2.04-.01l-1.54-165.42v-.15Z"/>
    <path class="cls-2" d="m230.37,235.72l.17-.11-.52-55.43v-.16l-.11-.11c-.13-.13-.27-.27-.4-.4l-.92-.94.31,57.41v.71s.61-.39.61-.39c.29-.19.58-.38.86-.57Z"/>
    <polygon class="cls-2" points="230.6 241.72 228.94 242.3 229.46 337.27 229.46 337.65 231.49 337.64 230.61 242.27 230.6 241.72"/>
    <polygon class="cls-2" points="233.57 240.71 231.9 241.28 232.4 333.88 232.41 334.27 234.44 334.25 233.57 241.25 233.57 240.71"/>
    <path class="cls-2" d="m233.36,233.45l.13-.12-.47-50.28v-.16l-.44-.4c-.12-.11-.24-.22-.36-.33l-.67-.64.29,52.35v.8s.64-.5.64-.5c.29-.23.59-.47.87-.71Z"/>
    <polygon class="cls-2" points="237.18 240.03 237.17 239.49 235.49 240.06 235.98 330.26 235.99 330.65 238.02 330.63 237.18 240.03"/>
    <path class="cls-2" d="m236.99,229.9l.1-.11-.4-43.45v-.17s-.13-.11-.13-.11c-.11-.09-.22-.18-.33-.27-.13-.1-.25-.2-.37-.31l-.66-.58.26,46.67.77-.82c.26-.28.52-.55.77-.84Z"/>
  </g>
  <g>
    <g>
      <rect class="cls-3" y="470.96" width="23.53" height="67.1"/>
      <polygon class="cls-3" points="69.5 446.36 98.34 446.36 98.34 538.07 121.95 538.07 121.95 446.36 150.73 446.36 150.73 423.55 69.5 423.55 69.5 446.36"/>
      <polygon class="cls-3" points="196.7 538.07 267.32 538.07 267.32 515.19 220.24 515.19 220.24 491.54 260.64 491.54 260.64 468.59 220.24 468.59 220.24 446.21 267.32 446.21 267.32 423.55 196.7 423.55 196.7 538.07"/>
      <polygon class="cls-3" points="340.9 423.55 317.36 423.55 317.36 538.07 387.98 538.07 387.98 515.19 340.9 515.19 340.9 423.55"/>
      <polygon class="cls-3" points="457.5 515.19 457.5 423.55 433.95 423.55 433.95 538.07 504.58 538.07 504.58 515.19 457.5 515.19"/>
    </g>
    <path class="cls-1" d="m470.67,92.71c-1.37-7.24-3.62-14.25-6.66-20.95-1.52-3.35-3.23-6.62-5.14-9.81-1.9-3.19-3.99-6.29-6.25-9.3-6.79-9.02-15.14-17.18-24.76-24.24-3.21-2.35-6.55-4.58-10.03-6.68-3.48-2.1-7.08-4.07-10.8-5.89-20.47-10.05-44.51-15.83-70.22-15.83-16.36,0-32.04,2.34-46.56,6.64-6.22,1.84-12.23,4.04-17.99,6.56-5.76,2.53-11.26,5.38-16.47,8.53-3.48,2.1-6.82,4.33-10.03,6.68-3.21,2.35-6.27,4.83-9.19,7.42-5.83,5.18-11.05,10.81-15.57,16.83-2.26,3.01-4.35,6.11-6.25,9.3-1.9,3.19-3.62,6.46-5.14,9.81-.76,1.67-1.47,3.37-2.13,5.08-1.32,3.42-2.44,6.92-3.34,10.48-.45,1.78-.85,3.58-1.19,5.39-1.03,5.43-1.56,10.99-1.56,16.66,0,2.09.07,4.16.22,6.22.15,2.16.39,4.29.69,6.41.56,3.95,1.38,7.85,2.45,11.66.97,3.44,2.17,6.81,3.53,10.12.18.45.34.9.53,1.35.35.81.75,1.59,1.12,2.39.07.15.14.3.21.45.41.87.79,1.75,1.22,2.61.01.03.02.05.04.08.07.13.15.26.21.39.36.71.77,1.41,1.15,2.11.09.16.17.32.26.48.55,1.01,1.1,2.02,1.69,3.02.1.17.21.33.32.5.73,1.22,1.48,2.43,2.27,3.62.12.18.22.36.34.54,1.14,1.7,2.33,3.37,3.57,5.02.17.22.36.44.53.66.18.23.38.46.56.7,1,1.28,2.01,2.55,3.07,3.79.19.22.4.44.59.66.99,1.13,1.99,2.26,3.03,3.36.21.22.42.45.63.67.76.79,1.56,1.56,2.34,2.33.22.22.44.44.66.66.97.94,1.96,1.86,2.96,2.78.23.21.46.41.69.62,4.03,3.6,8.31,7.02,12.89,10.16.07.81.12,1.65.17,2.53.02.44.03.92.04,1.37.01.45.04.89.04,1.36,0,.65,0,1.33-.01,2,0,.31,0,.6,0,.91-.02.76-.07,1.54-.11,2.33-.01.25-.02.48-.04.73-.06.84-.15,1.69-.24,2.55-.02.21-.04.41-.06.62-.11.9-.25,1.81-.41,2.73-.03.17-.05.34-.08.52-.16.92-.36,1.84-.58,2.77-.04.18-.07.35-.11.53-.22.93-.49,1.85-.77,2.78-.05.18-.1.36-.15.53-.29.91-.62,1.81-.97,2.72-.07.19-.13.39-.21.58-.35.88-.76,1.75-1.18,2.62-.1.21-.18.42-.29.62-.43.85-.91,1.68-1.4,2.5-.13.22-.24.44-.38.65-.5.8-1.05,1.57-1.62,2.35-.17.23-.32.46-.49.69-.57.74-1.2,1.46-1.84,2.17-.21.24-.41.48-.63.71-.35.37-.72.72-1.09,1.07-.28.27-.58.54-.88.8-.03.03-.06.06-.1.09-.27.24-.52.49-.79.73-.58.49-1.2.94-1.82,1.41-.15.11-.31.23-.47.34-.14.1-.26.21-.41.31-.19.14-.38.28-.58.41-.48.33-1,.63-1.51.94-.28.17-.58.33-.86.5-.04.03-.09.05-.13.08-.33.19-.62.4-.96.58v-.03c-.26.14-.5.3-.77.44,0,0,.28-.1.77-.27.09-.03.22-.08.33-.11.06-.02.11-.04.18-.06.18-.06.38-.13.59-.2.1-.03.19-.07.29-.1.01,0,.02,0,.03-.01.17-.06.35-.12.54-.19.06-.02.13-.04.19-.07.18-.06.35-.12.55-.19.08-.03.19-.06.27-.09.34-.12.68-.23,1.07-.37.08-.03.18-.06.26-.09.2-.07.41-.14.62-.21s.4-.14.62-.21c.12-.04.26-.09.38-.13.54-.18,1.11-.38,1.71-.58.29-.1.59-.2.89-.3.27-.09.54-.18.81-.27.14-.05.28-.09.42-.14.56-.19,1.14-.38,1.73-.58.13-.04.26-.09.4-.13.63-.21,1.27-.42,1.93-.64.16-.05.32-.11.49-.16.61-.2,1.23-.41,1.86-.61.24-.08.48-.16.72-.24.64-.21,1.3-.42,1.96-.64.19-.06.38-.12.57-.19.7-.23,1.41-.46,2.14-.69.22-.07.44-.14.66-.21.71-.23,1.42-.46,2.15-.69.24-.08.48-.15.73-.23.73-.23,1.47-.47,2.21-.71.25-.08.49-.16.74-.23.85-.27,1.71-.54,2.57-.81.14-.04.27-.08.41-.13,1.01-.32,2.03-.64,3.07-.96.02,0,.03,0,.05-.01,2.14-.66,4.32-1.33,6.54-2,.01,0,.03,0,.04-.01,1.07-.32,2.15-.65,3.23-.97.15-.04.3-.09.45-.13.93-.28,1.86-.55,2.79-.82.29-.08.58-.17.86-.25.81-.24,1.61-.47,2.42-.7.34-.1.68-.19,1.02-.29.74-.21,1.48-.42,2.23-.63.4-.11.8-.23,1.2-.34.71-.2,1.41-.4,2.12-.59.39-.11.78-.22,1.18-.32.7-.19,1.41-.38,2.11-.57.4-.11.81-.22,1.21-.33.69-.18,1.37-.36,2.05-.54.4-.11.81-.21,1.21-.32.68-.18,1.36-.35,2.03-.52.4-.1.79-.2,1.18-.3.66-.17,1.32-.33,1.98-.49.4-.1.8-.2,1.19-.29.68-.16,1.34-.32,2.01-.48.36-.08.72-.17,1.07-.25.72-.17,1.43-.33,2.14-.49.29-.07.59-.13.87-.2.99-.22,1.96-.43,2.92-.63,9.16,1.58,18.66,2.41,28.4,2.41,16.36,0,32.04-2.34,46.56-6.64,4.15-1.23,8.2-2.61,12.15-4.15,3.95-1.54,7.79-3.22,11.51-5.05,5.58-2.74,10.9-5.8,15.92-9.14,5.02-3.34,9.73-6.97,14.1-10.86,7.29-6.47,13.62-13.66,18.83-21.41,10.42-15.5,16.34-33.26,16.34-52.13,0-5.66-.53-11.22-1.56-16.66Zm-182.96,34.25c-7.6,0-13.76-6.03-13.76-13.46s6.16-13.46,13.76-13.46,13.76,6.03,13.76,13.46-6.16,13.46-13.76,13.46Zm49.1,0c-7.6,0-13.76-6.03-13.76-13.46s6.16-13.46,13.76-13.46,13.76,6.03,13.76,13.46-6.16,13.46-13.76,13.46Zm49.1,0c-7.6,0-13.76-6.03-13.76-13.46s6.16-13.46,13.76-13.46,13.76,6.03,13.76,13.46-6.16,13.46-13.76,13.46Z"/>
  </g>
</svg>