<?xml version="1.0" encoding="UTF-8"?>
<svg id="Layer_1" data-name="Layer 1" xmlns="http://www.w3.org/2000/svg" viewBox="0 0 781.9 785.05">
  <defs>
    <style>
      .cls-1 {
        fill: #0b9848;
      }

      .cls-1, .cls-2, .cls-3 {
        stroke-width: 0px;
      }

      .cls-2 {
        fill: #939598;
      }

      .cls-3 {
        fill: #f78d1e;
      }
    </style>
  </defs>
  <g>
    <polygon class="cls-1" points="36.46 653.54 36.46 617.96 0 653.54 36.46 653.54"/>
    <path class="cls-3" d="m336.9,242.06l-237.34-24.84,218.53-7.28c-4.36-10.3-7.4-20.95-9.02-31.83-78.25,1.96-216.31,5.23-216.31,5.23-13.32,2.67-22.81,13.53-22.81,26.07v259.12c0,14.74,12.98,26.69,28.99,26.69l238.21,16.01V242.41c-.09-.12-.17-.23-.25-.35Z"/>
  </g>
  <g>
    <path class="cls-2" d="m331.59,233.6l-160.29-11.79,156.59,7.75,1.14.07-1.2-1.88-151.44-6.92,148.6,3.73,1.05.04-1.03-1.83-136.14-2.82,134.07.92.98.02-.42-.82c-.06-.12-.13-.24-.19-.35-.06-.11-.12-.21-.17-.32l-.16-.32-141.92-.6,139.76-2h.94s-.84-1.77-.84-1.77l-194.93,3.53,205.66,17.21,1.2.11-1.27-1.96Z"/>
    <path class="cls-2" d="m345.12,251.09l-.52-.56c-.17-.19-.34-.37-.51-.56l-1.09-1.25,1.47,256.04v.56s3.15-.02,3.15-.02l-2.5-254v-.2Z"/>
    <path class="cls-2" d="m350.79,257.19l-.16-.16c-.17-.17-.32-.34-.48-.51-.15-.17-.31-.34-.47-.5l-1.07-1.1,1.4,243.3v.56s3.16-.02,3.16-.02l-2.38-241.35v-.21Z"/>
    <path class="cls-2" d="m356.99,343.93l.27-.17-.8-80.87v-.23l-.18-.16c-.21-.19-.41-.39-.62-.59l-1.43-1.38.48,83.76v1.03s.94-.57.94-.57c.45-.28.9-.55,1.34-.83Z"/>
    <polygon class="cls-2" points="357.34 352.68 354.77 353.53 355.57 492.08 355.57 492.64 358.72 492.62 357.35 353.47 357.34 352.68"/>
    <polygon class="cls-2" points="361.94 351.2 359.35 352.04 360.14 487.14 360.14 487.7 363.29 487.68 361.95 351.99 361.94 351.2"/>
    <path class="cls-2" d="m361.62,340.61l.21-.17-.73-73.36v-.24l-.67-.58c-.19-.16-.37-.32-.56-.49l-1.04-.93.45,76.38v1.16s.99-.74.99-.74c.46-.34.91-.69,1.35-1.04Z"/>
    <polygon class="cls-2" points="367.53 350.2 367.52 349.42 364.92 350.25 365.68 481.86 365.69 482.42 368.84 482.4 367.53 350.2"/>
    <path class="cls-2" d="m367.24,335.43l.15-.16-.63-63.4v-.25s-.2-.17-.2-.17c-.17-.14-.34-.26-.5-.39-.2-.15-.39-.3-.58-.46l-1.03-.85.4,68.09,1.2-1.2c.41-.41.81-.81,1.2-1.23Z"/>
  </g>
  <g>
    <g>
      <rect class="cls-3" y="687.14" width="36.46" height="97.9"/>
      <polygon class="cls-3" points="107.69 651.24 152.39 651.24 152.39 785.05 188.98 785.05 188.98 651.24 233.57 651.24 233.57 617.97 107.69 617.97 107.69 651.24"/>
      <polygon class="cls-3" points="304.81 785.05 414.25 785.05 414.25 751.68 341.29 751.68 341.29 717.16 403.89 717.16 403.89 683.68 341.29 683.68 341.29 651.03 414.25 651.03 414.25 617.97 304.81 617.97 304.81 785.05"/>
      <polygon class="cls-3" points="528.26 617.97 491.78 617.97 491.78 785.05 601.22 785.05 601.22 751.68 528.26 751.68 528.26 617.97"/>
      <polygon class="cls-3" points="708.94 751.68 708.94 617.97 672.46 617.97 672.46 785.05 781.9 785.05 781.9 751.68 708.94 751.68"/>
    </g>
    <path class="cls-1" d="m729.35,135.27c-2.12-10.56-5.61-20.79-10.32-30.56-2.35-4.89-5.01-9.66-7.96-14.31-2.95-4.65-6.18-9.18-9.69-13.56-10.52-13.16-23.46-25.07-38.37-35.37-4.97-3.43-10.16-6.69-15.54-9.75-5.39-3.06-10.97-5.93-16.74-8.6-31.73-14.66-68.97-23.1-108.81-23.1-25.35,0-49.65,3.42-72.15,9.68-9.64,2.68-18.95,5.89-27.87,9.58-8.92,3.68-17.45,7.85-25.53,12.44-5.39,3.06-10.57,6.32-15.54,9.75-4.97,3.43-9.72,7.05-14.24,10.83-9.03,7.56-17.12,15.77-24.13,24.55-3.51,4.39-6.74,8.91-9.69,13.56-2.95,4.65-5.61,9.43-7.96,14.31-1.18,2.44-2.28,4.92-3.3,7.41-2.04,5-3.77,10.1-5.17,15.29-.7,2.6-1.31,5.22-1.85,7.86-1.59,7.92-2.42,16.04-2.42,24.3,0,3.05.11,6.07.33,9.07.23,3.14.6,6.26,1.07,9.35.87,5.77,2.14,11.45,3.8,17.02,1.5,5.02,3.36,9.94,5.47,14.77.28.65.52,1.32.81,1.96.54,1.18,1.16,2.33,1.73,3.49.11.22.22.44.32.66.63,1.27,1.22,2.56,1.89,3.81.02.04.04.08.06.11.1.19.23.38.33.57.56,1.04,1.19,2.05,1.78,3.08.13.23.27.47.41.7.86,1.47,1.71,2.95,2.63,4.4.16.25.33.49.49.74,1.14,1.78,2.3,3.55,3.52,5.29.18.26.34.52.53.78,1.76,2.48,3.61,4.92,5.54,7.32.26.33.55.64.82.96.28.34.58.67.87,1.01,1.55,1.86,3.11,3.72,4.75,5.53.3.33.62.64.92.96,1.53,1.66,3.08,3.3,4.69,4.91.33.33.65.66.98.98,1.18,1.16,2.42,2.27,3.63,3.41.34.32.68.64,1.02.96,1.5,1.37,3.03,2.72,4.59,4.05.35.3.71.6,1.07.9,6.24,5.26,12.87,10.24,19.97,14.83.1,1.17.19,2.41.26,3.7.03.64.04,1.34.07,2.01.02.66.06,1.3.07,1.99.01.95,0,1.94-.02,2.92,0,.45,0,.87-.01,1.33-.03,1.11-.1,2.25-.17,3.4-.02.36-.03.7-.06,1.06-.09,1.22-.23,2.47-.38,3.72-.04.31-.05.6-.09.91-.17,1.31-.39,2.65-.63,3.98-.05.25-.07.5-.12.76-.25,1.34-.57,2.69-.9,4.04-.06.26-.11.52-.18.78-.35,1.35-.76,2.7-1.2,4.05-.08.26-.15.52-.24.78-.45,1.33-.96,2.65-1.5,3.96-.12.28-.21.56-.33.84-.55,1.29-1.18,2.56-1.82,3.82-.15.3-.28.61-.45.91-.66,1.24-1.4,2.44-2.17,3.65-.2.32-.37.64-.58.95-.77,1.17-1.63,2.3-2.51,3.42-.26.33-.49.68-.76,1.01-.89,1.08-1.86,2.13-2.86,3.16-.33.34-.63.7-.97,1.04-.54.53-1.12,1.05-1.69,1.56-.44.4-.9.78-1.36,1.17-.05.04-.1.09-.15.13-.42.35-.8.72-1.23,1.06-.89.71-1.86,1.38-2.82,2.05-.24.17-.48.33-.72.5-.22.15-.41.31-.63.45-.3.2-.59.41-.9.6-.75.48-1.55.92-2.34,1.37-.43.25-.89.49-1.34.73-.07.04-.14.07-.2.11-.51.28-.97.59-1.49.85v-.04c-.41.21-.77.44-1.19.65,0,0,.44-.14,1.19-.39.14-.05.34-.11.51-.17.1-.03.17-.06.28-.09.28-.09.58-.19.92-.3.15-.05.29-.1.46-.15.02,0,.03,0,.05-.02.26-.09.55-.18.84-.27.1-.03.2-.06.3-.1.28-.09.55-.18.86-.28.13-.04.29-.09.42-.14.53-.17,1.06-.34,1.65-.53.12-.04.27-.09.4-.13.31-.1.64-.21.96-.31.33-.1.63-.2.97-.31.19-.06.4-.13.59-.19.84-.27,1.72-.55,2.65-.84.45-.14.91-.29,1.38-.44.42-.13.83-.26,1.26-.4.21-.07.43-.14.65-.2.87-.27,1.76-.56,2.69-.85.2-.06.41-.13.61-.19.97-.3,1.96-.61,2.99-.93.25-.08.5-.16.75-.23.94-.29,1.9-.59,2.89-.9.37-.11.74-.23,1.11-.34,1-.31,2.01-.62,3.04-.94.29-.09.59-.18.88-.27,1.08-.33,2.19-.67,3.31-1.01.34-.1.67-.21,1.02-.31,1.09-.33,2.2-.67,3.33-1.01.38-.11.75-.23,1.13-.34,1.13-.34,2.27-.68,3.43-1.03.38-.11.76-.23,1.14-.34,1.31-.39,2.64-.79,3.99-1.18.21-.06.42-.12.63-.19,1.57-.46,3.15-.93,4.75-1.4.02,0,.05-.01.07-.02,3.32-.97,6.7-1.94,10.13-2.92.02,0,.04-.01.06-.02,1.66-.47,3.33-.94,5.01-1.41.23-.07.47-.13.7-.19,1.44-.4,2.88-.8,4.32-1.2.45-.12.89-.24,1.34-.37,1.25-.34,2.5-.69,3.76-1.03.53-.14,1.05-.28,1.58-.43,1.15-.31,2.3-.62,3.45-.93.62-.17,1.24-.33,1.86-.49,1.1-.29,2.19-.58,3.28-.86.61-.16,1.22-.32,1.82-.47,1.09-.28,2.18-.56,3.26-.84.63-.16,1.25-.32,1.87-.47,1.06-.27,2.12-.53,3.18-.79.63-.16,1.25-.31,1.87-.46,1.06-.26,2.1-.51,3.15-.76.61-.15,1.23-.3,1.84-.44,1.03-.24,2.05-.48,3.06-.72.62-.14,1.23-.29,1.84-.43,1.05-.24,2.08-.47,3.11-.7.55-.12,1.11-.25,1.66-.37,1.12-.25,2.22-.48,3.31-.71.45-.1.91-.2,1.36-.29,1.53-.32,3.04-.63,4.53-.92,14.19,2.3,28.91,3.52,44.01,3.52,25.35,0,49.65-3.42,72.15-9.68,6.43-1.79,12.71-3.81,18.83-6.05s12.07-4.7,17.84-7.37c8.65-4,16.9-8.46,24.67-13.34,7.77-4.88,15.08-10.17,21.85-15.84,11.29-9.45,21.11-19.93,29.19-31.23,16.15-22.61,25.33-48.52,25.33-76.06,0-8.26-.83-16.38-2.42-24.3Zm-283.51,49.97c-11.78,0-21.33-8.79-21.33-19.64s9.55-19.64,21.33-19.64,21.33,8.79,21.33,19.64-9.55,19.64-21.33,19.64Zm76.08,0c-11.78,0-21.33-8.79-21.33-19.64s9.55-19.64,21.33-19.64,21.33,8.79,21.33,19.64-9.55,19.64-21.33,19.64Zm76.08,0c-11.78,0-21.33-8.79-21.33-19.64s9.55-19.64,21.33-19.64,21.33,8.79,21.33,19.64-9.55,19.64-21.33,19.64Z"/>
  </g>
  <g>
    <path class="cls-1" d="m539.45,383.69h-1.07l-54.42,108.61h19.66l7.88-16.18h54.76l7.89,16.18h19.66l-54.37-108.61Zm-20.88,78.1l20.35-41.58,20.3,41.58h-40.64Z"/>
    <g>
      <polygon class="cls-3" points="606.62 385.84 606.62 408.2 624.77 408.2 606.62 385.84"/>
      <rect class="cls-1" x="606.62" y="429.71" width="18.15" height="62.6"/>
    </g>
  </g>
</svg>